<?xml version="1.0" encoding="iso-8859-1"?>
<!-- Generator: Adobe Illustrator 17.1.0, SVG Export Plug-In . SVG Version: 6.00 Build 0)  -->
<!DOCTYPE svg PUBLIC "-//W3C//DTD SVG 1.1//EN" "http://www.w3.org/Graphics/SVG/1.1/DTD/svg11.dtd">
<svg version="1.1" id="Capa_1" xmlns="http://www.w3.org/2000/svg" xmlns:xlink="http://www.w3.org/1999/xlink" x="0px" y="0px"
	 viewBox="0 0 479.961 479.961" style="enable-background:new 0 0 479.961 479.961;" xml:space="preserve">
<path d="M474.014,251.73c3.919-7.001,5.947-14.302,5.947-21.823c0-24.498-20.899-46.483-60.438-63.58
	c-34.542-14.936-81.726-25.171-133.341-28.969c-8.098-12.86-21.45-22.084-37.027-24.634c-4.406-24.978-26.25-44.018-52.472-44.018
	h-9.873c-5.523,0-10,4.477-10,10s4.477,10,10,10h9.873c15.337,0,28.278,10.426,32.126,24.56
	c-14.338,3.142-26.558,11.985-34.165,24.029c-51.813,3.737-99.203,13.951-133.924,28.909C20.997,183.319,0,205.347,0,229.907
	c0,7.49,2.028,14.785,5.965,21.792C2.009,258.763,0,266.095,0,273.574c0,7.452,2.01,14.711,5.907,21.685
	C1.989,302.292,0,309.589,0,317.032c0,27.002,26.252,51.488,73.921,68.945c44.511,16.301,103.486,25.278,166.06,25.278
	c62.574,0,121.548-8.977,166.06-25.278c47.669-17.457,73.921-41.942,73.921-68.945c0-7.431-1.983-14.717-5.888-21.739
	c3.881-6.97,5.888-14.235,5.888-21.719C479.961,266.106,477.959,258.785,474.014,251.73z M348.239,333.615v-65.001
	c0-0.035-0.005-0.069-0.005-0.105c-0.002-0.2-0.016-0.402-0.03-0.603c-0.01-0.147-0.018-0.294-0.035-0.438
	c-0.018-0.154-0.045-0.308-0.071-0.462c-0.031-0.19-0.062-0.38-0.103-0.567c-0.008-0.037-0.011-0.074-0.02-0.111
	c-0.021-0.089-0.052-0.172-0.075-0.26c-0.054-0.203-0.109-0.406-0.174-0.604c-0.042-0.128-0.091-0.251-0.138-0.376
	c-0.068-0.179-0.136-0.357-0.214-0.531c-0.063-0.142-0.132-0.279-0.201-0.417c-0.074-0.147-0.148-0.294-0.229-0.437
	c-0.085-0.151-0.177-0.298-0.27-0.444c-0.078-0.123-0.156-0.245-0.24-0.365c-0.104-0.149-0.214-0.293-0.326-0.436
	c-0.087-0.11-0.173-0.22-0.264-0.327c-0.115-0.135-0.236-0.265-0.358-0.394c-0.102-0.107-0.204-0.213-0.31-0.315
	c-0.119-0.114-0.241-0.224-0.365-0.332c-0.123-0.107-0.246-0.213-0.374-0.314c-0.115-0.091-0.233-0.178-0.352-0.263
	c-0.146-0.106-0.294-0.209-0.447-0.307c-0.11-0.071-0.222-0.137-0.335-0.204c-0.167-0.098-0.336-0.194-0.509-0.282
	c-0.11-0.056-0.221-0.108-0.333-0.161c-0.179-0.084-0.359-0.164-0.543-0.237c-0.12-0.048-0.242-0.09-0.364-0.133
	c-0.178-0.063-0.356-0.123-0.539-0.176c-0.142-0.041-0.286-0.076-0.431-0.111c-0.165-0.04-0.33-0.079-0.498-0.11
	c-0.172-0.032-0.346-0.056-0.52-0.079c-0.147-0.02-0.293-0.04-0.442-0.053c-0.195-0.017-0.391-0.024-0.588-0.03
	c-0.099-0.003-0.196-0.015-0.296-0.015c-0.041,0-0.081,0.006-0.122,0.006c-0.181,0.002-0.363,0.015-0.545,0.028
	c-0.166,0.011-0.331,0.02-0.494,0.039c-0.138,0.016-0.275,0.041-0.413,0.063c-0.206,0.033-0.411,0.067-0.613,0.112
	c-0.033,0.007-0.066,0.01-0.099,0.018c-28.564,6.711-61.751,10.259-95.971,10.259c-47.525,0-92.061-6.724-125.401-18.934
	c-29.308-10.733-46.806-24.861-46.806-37.793c0-20.529,44.218-45.294,119.062-53.783c-0.338,2.441-0.527,4.928-0.527,7.461
	c0,29.822,24.262,54.084,54.084,54.084c29.822,0,54.083-24.262,54.083-54.084c0-2.499-0.185-4.954-0.515-7.364
	c74.32,8.586,118.224,33.28,118.224,53.687c0,8.602-7.949,18.026-22.385,26.539c-0.017,0.01-0.031,0.022-0.048,0.032
	c-0.256,0.153-0.504,0.316-0.744,0.491c-0.048,0.035-0.095,0.071-0.142,0.106c-0.208,0.157-0.411,0.322-0.606,0.494
	c-0.063,0.056-0.125,0.113-0.188,0.17c-0.173,0.161-0.339,0.327-0.5,0.5c-0.066,0.07-0.131,0.141-0.194,0.214
	c-0.151,0.172-0.296,0.348-0.435,0.53c-0.057,0.074-0.113,0.148-0.167,0.223c-0.139,0.193-0.271,0.39-0.396,0.593
	c-0.041,0.066-0.081,0.132-0.121,0.199c-0.128,0.218-0.247,0.442-0.359,0.67c-0.027,0.055-0.053,0.109-0.079,0.164
	c-0.112,0.239-0.213,0.483-0.306,0.732c-0.019,0.051-0.037,0.101-0.055,0.152c-0.088,0.247-0.165,0.498-0.233,0.753
	c-0.017,0.062-0.033,0.125-0.048,0.187c-0.059,0.238-0.109,0.478-0.15,0.722c-0.016,0.092-0.029,0.184-0.042,0.277
	c-0.03,0.214-0.055,0.429-0.071,0.647c-0.01,0.132-0.015,0.264-0.02,0.396c-0.004,0.119-0.018,0.235-0.018,0.355v86.058
	c0,10.102-8.218,18.32-18.319,18.32S348.239,343.717,348.239,333.615z M404.878,299.263c23.56-8.509,41.95-18.664,54.63-29.997
	c0.293,1.443,0.453,2.881,0.453,4.308c0,4.894-1.749,9.852-5.07,14.762c-0.601,0.636-1.103,1.337-1.509,2.084
	c-8.597,11.167-25.344,21.994-48.505,31.135V299.263z M459.961,229.907c0,5.259-2.004,10.593-5.826,15.86
	c-0.019,0.025-0.035,0.051-0.054,0.076c-8.374,11.488-25.414,22.655-49.203,32.045V253.11c22.415-14.79,27.309-30.134,27.309-40.698
	c0-6.03-1.558-13.274-6.556-20.971C447.967,203.543,459.961,217.206,459.961,229.907z M240.394,132.005
	c18.793,0,34.083,15.29,34.083,34.084s-15.29,34.084-34.083,34.084c-18.794,0-34.084-15.29-34.084-34.084
	S221.6,132.005,240.394,132.005z M54.253,191.457c-4.183,6.444-6.478,13.431-6.478,20.954c0,22.33,21.283,42.421,59.928,56.573
	c35.488,12.997,82.465,20.154,132.278,20.154c30.963,0,61.193-2.805,88.258-8.145v52.622c0,2.575,0.26,5.091,0.746,7.525
	c-28.063,4.419-57.942,6.656-89.004,6.656c-109.297,0-190.661-27.804-213.503-57.568c-0.363-0.634-0.794-1.236-1.3-1.788
	c-3.403-4.955-5.177-9.95-5.177-14.867c0-1.448,0.167-2.907,0.468-4.371c12.484,11.178,30.471,21.232,53.454,29.648
	c44.511,16.301,103.486,25.278,166.06,25.278c19.086,0,38.068-0.845,56.42-2.511c5.5-0.5,9.554-5.363,9.055-10.863
	c-0.5-5.5-5.354-9.548-10.863-9.055c-17.753,1.612-36.127,2.429-54.611,2.429C110.343,304.13,20,265.013,20,229.907
	C20,217.198,31.968,203.547,54.253,191.457z M239.981,391.255C110.343,391.255,20,352.138,20,317.032
	c0-1.391,0.15-2.791,0.428-4.197c12.486,11.193,30.487,21.259,53.494,29.684c44.511,16.301,103.486,25.278,166.06,25.278
	c34.518,0,67.674-2.682,98.659-7.975c6.995,7.448,16.92,12.113,27.919,12.113c17.751,0,32.718-12.135,37.051-28.544
	c24.199-8.611,43.029-18.943,55.938-30.495c0.27,1.385,0.413,2.765,0.413,4.135C459.961,352.138,369.619,391.255,239.981,391.255z"
	/>
<g>
</g>
<g>
</g>
<g>
</g>
<g>
</g>
<g>
</g>
<g>
</g>
<g>
</g>
<g>
</g>
<g>
</g>
<g>
</g>
<g>
</g>
<g>
</g>
<g>
</g>
<g>
</g>
<g>
</g>
</svg>
